<svg xmlns="http://www.w3.org/2000/svg" viewBox="0 0 920 920" role="img" aria-labelledby="title desc"><title id="title">Peptide Hub Logo</title><desc id="desc">Circular Peptide Hub logo with flask icon and green text</desc><defs><radialGradient id="bg" cx="50%" cy="42%" r="70%"><stop offset="0%" stop-color="#ffffff"/><stop offset="60%" stop-color="#eefbf7"/><stop offset="100%" stop-color="#dff5ef"/></radialGradient><linearGradient id="teal" x1="0" x2="1"><stop stop-color="#0b8f78"/><stop offset="1" stop-color="#21c28f"/></linearGradient></defs><circle cx="460" cy="460" r="425" fill="url(#bg)" stroke="#1fa77f" stroke-width="22"/><g opacity=".18" stroke="#1fa77f" stroke-width="10" fill="none"><path d="M80 615c160-90 290-80 430 15 110 75 220 70 330-10"/><path d="M115 230c90 40 165 38 245-10"/><path d="M610 270c70-50 145-50 220 0"/><circle cx="185" cy="310" r="28"/><circle cx="260" cy="250" r="42"/><circle cx="720" cy="318" r="35"/><circle cx="800" cy="390" r="48"/></g><g transform="translate(0 -20)"><path d="M430 190h95c18 0 32 14 32 32s-14 32-32 32h-12v118l112 205c25 46-8 103-60 103H389c-52 0-85-57-60-103l112-205V254h-11c-18 0-32-14-32-32s14-32 32-32z" fill="none" stroke="url(#teal)" stroke-width="38" stroke-linecap="round" stroke-linejoin="round"/><path d="M395 584l74-135 12 22c22 39 55 34 84 19l51 94c12 22-4 49-29 49H424c-25 0-41-27-29-49z" fill="url(#teal)" opacity=".95"/><circle cx="444" cy="515" r="20" fill="#fff"/><circle cx="498" cy="544" r="14" fill="#fff"/><circle cx="548" cy="468" r="13" fill="#1fa77f"/></g><text x="460" y="645" text-anchor="middle" font-family="Inter, Arial, Helvetica, sans-serif" font-size="145" font-weight="900" fill="#0d241f">Peptide</text><text x="460" y="765" text-anchor="middle" font-family="Inter, Arial, Helvetica, sans-serif" font-size="145" font-weight="900" fill="#1fa77f">Hub</text></svg>