<svg xmlns="http://www.w3.org/2000/svg" viewBox="0 0 512 512" role="img" aria-labelledby="title desc"><title id="title">Peptide Hub Icon</title><desc id="desc">Premium Peptide Hub flask icon without wordmark text</desc><defs><radialGradient id="bg" cx="50%" cy="35%" r="70%"><stop offset="0%" stop-color="#ffffff"/><stop offset="58%" stop-color="#f3fffb"/><stop offset="100%" stop-color="#dff7ef"/></radialGradient><linearGradient id="teal" x1="96" y1="80" x2="416" y2="432" gradientUnits="userSpaceOnUse"><stop stop-color="#00a98f"/><stop offset="1" stop-color="#66f5de"/></linearGradient></defs><rect x="38" y="38" width="436" height="436" rx="118" fill="url(#bg)" stroke="#0b8f78" stroke-width="18"/><g opacity=".14" stroke="#0b8f78" stroke-width="8" fill="none"><path d="M78 345c76-44 139-40 206 8 58 42 110 38 166-6"/><circle cx="124" cy="156" r="18"/><circle cx="166" cy="120" r="26"/><circle cx="383" cy="172" r="23"/><path d="M140 145l21-18M360 178l-48-25"/></g><path d="M218 102h76c14 0 25 11 25 25s-11 25-25 25h-8v86l85 154c19 35-6 78-46 78H187c-40 0-65-43-46-78l85-154v-86h-8c-14 0-25-11-25-25s11-25 25-25Z" fill="none" stroke="#05251f" stroke-width="22" stroke-linecap="round" stroke-linejoin="round"/><path d="M198 391l52-95 12 21c16 29 42 24 62 12l35 62c9 16-3 36-21 36H219c-18 0-30-20-21-36Z" fill="url(#teal)"/><path d="M226 152h60v83l88 160c23 42-7 93-55 93H194c-48 0-78-51-55-93l87-160v-83Z" fill="none" stroke="url(#teal)" stroke-width="18" stroke-linecap="round" stroke-linejoin="round"/><circle cx="235" cy="351" r="15" fill="#fff"/><circle cx="280" cy="378" r="10" fill="#fff"/><circle cx="318" cy="314" r="11" fill="#0b8f78"/></svg>